<svg width="145" height="24" viewBox="0 0 145 24" fill="none" xmlns="http://www.w3.org/2000/svg">
<g clip-path="url(#clip0_138_1147)">
<path d="M9.98623 2.48975L0 12.1907V16.1357H9.98623V20.9861H14.9793V12.1907H4.99311L14.9793 2.48975H9.98623Z" fill="white"/>
<path d="M17.1319 7.3402L22.125 2.48975H17.1319V7.3402Z" fill="white"/>
<path d="M22.125 7.3402L17.1319 12.1906V17.0627H22.125V12.1906L27.1182 7.3402V2.48975H22.125V7.3402Z" fill="white"/>
<path d="M27.1182 12.1904L22.125 17.0624H27.1182V12.1904Z" fill="white"/>
<path d="M37.637 5.01221L37.3707 7.03862H39.7008L38.6356 15.3814H41.0989L42.1641 7.03862H44.472L44.7383 5.01221H37.637Z" fill="white"/>
<path d="M52.2612 8.89257H48.0005L48.4887 5.01221H46.0254L44.7161 15.3814H47.1794L47.7342 10.919H51.9949L51.4402 15.3814H53.9034L55.2127 5.01221H52.7495L52.2612 8.89257Z" fill="white"/>
<path d="M56.2336 15.403H62.1809L62.4472 13.3765H58.8965L59.185 11.0699H62.5582L62.8245 9.04347H59.4513L59.7176 7.03862H63.2017L63.468 5.01221H57.565L56.2336 15.403Z" fill="white"/>
<path d="M76.4279 11.7597L71.5014 5.01221H69.3488L68.0173 15.3814H70.5028L71.346 8.59076L76.2948 15.3814H78.4473L79.7566 5.01221H77.2934L76.4279 11.7597Z" fill="white"/>
<path d="M80.7553 15.4029H86.7026L86.9689 13.3765H83.4183L83.7068 11.0698H87.0799L87.3462 9.0434H83.9731L84.2394 7.03855H87.7234L87.9676 5.03369H82.0646L80.7553 15.4029Z" fill="white"/>
<path d="M88.8108 7.03862H91.141L90.0758 15.3814H92.539L93.6042 7.03862H95.9122L96.1784 5.01221H89.0771L88.8108 7.03862Z" fill="white"/>
<path d="M106.52 11.8891L105.122 5.01221H103.435L100.284 11.8891L98.8858 5.01221H96.3782L98.6861 15.3814H100.794L103.812 9.08659L105.233 15.3814H107.341L112.267 5.01221H109.649L106.52 11.8891Z" fill="white"/>
<path d="M118.548 4.7749C117.172 4.7749 115.507 5.09827 114.154 6.3486C113.155 7.27558 112.401 8.69838 112.401 10.5092C112.401 12.2123 113.177 13.3979 113.91 14.1309C115.174 15.3812 116.639 15.6184 117.971 15.6184C119.369 15.6184 121.033 15.3597 122.387 14.0231C123.496 12.9021 124.029 11.3068 124.029 9.81937C124.029 8.28879 123.43 6.99533 122.52 6.13303C121.81 5.4863 120.589 4.7749 118.548 4.7749ZM120.5 12.5141C119.702 13.2901 118.814 13.3979 118.104 13.3979C117.349 13.3979 116.484 13.247 115.774 12.5356C115.285 12.0614 114.908 11.3068 114.908 10.3583C114.908 9.49601 115.263 8.63371 115.885 7.98698C116.528 7.3187 117.371 6.97377 118.437 6.97377C119.102 6.97377 119.946 7.12468 120.656 7.79296C121.344 8.46125 121.499 9.30199 121.499 9.97028C121.499 11.0266 121.077 11.932 120.5 12.5141Z" fill="white"/>
<path d="M132.573 10.3154C133.105 9.81954 133.46 9.02191 133.46 8.05182C133.46 6.97395 133.061 6.30566 132.684 5.93918C131.885 5.09844 130.864 5.01221 129.843 5.01221H126.514L125.205 15.3814H127.668L128.179 11.2855L130.753 15.3814H133.638L130.886 11.1561C131.463 11.0483 132.107 10.7465 132.573 10.3154ZM130.398 9.34528C129.954 9.66864 129.355 9.71176 128.955 9.71176H128.356L128.711 6.86616H129.089C129.666 6.86616 130.132 6.93083 130.442 7.12485C130.864 7.38354 130.953 7.81469 130.953 8.13805C130.953 8.56921 130.82 9.02191 130.398 9.34528Z" fill="white"/>
<path d="M145 5.01221H142.049L138.143 9.34528L138.675 5.01221H136.212L134.903 15.3814H137.366L137.965 10.6818L141.183 15.3814H144.29L140.34 10.0351L145 5.01221Z" fill="white"/>
</g>
<defs>
<clipPath id="clip0_138_1147">
<rect width="145" height="23.4762" fill="white"/>
</clipPath>
</defs>
</svg>
