<svg width="24" height="29" viewBox="0 0 24 29" fill="none" xmlns="http://www.w3.org/2000/svg">
<path d="M23.52 14.772C23.52 13.8356 23.424 12.9354 23.262 12.0835H12V16.9168H18.438C18.168 18.4454 17.322 19.7443 16.038 20.6083V23.6593H19.938C22.206 21.5568 23.52 18.4514 23.52 14.772Z" fill="#4285F4"/>
<path d="M12 26.5835C15.24 26.5835 17.952 25.502 19.944 23.6593L16.044 20.6082C14.97 21.3272 13.602 21.7501 12 21.7501C8.88604 21.7501 6.24604 19.6295 5.31004 16.7778H1.29004V19.9195C3.25804 23.8707 7.30804 26.5835 12 26.5835Z" fill="#34A853"/>
<path d="M5.31 16.7777C5.07 16.0587 4.938 15.2914 4.938 14.4999C4.938 13.7085 5.07 12.9412 5.31 12.2222V9.08057H1.29C0.468 10.7118 0 12.5485 0 14.4999C0 16.4514 0.468 18.2881 1.284 19.9193L5.31 16.7777Z" fill="#FABB05"/>
<path d="M12.0001 7.24984C13.7581 7.24984 15.3301 7.86005 16.5721 9.05025L20.0281 5.57025C17.9521 3.61275 15.2341 2.4165 12.0001 2.4165C7.30806 2.4165 3.25806 5.12921 1.28406 9.08046L5.30406 12.2221C6.24606 9.37046 8.88606 7.24984 12.0001 7.24984Z" fill="#E94235"/>
</svg>
