<svg width="135" height="47" viewBox="0 0 135 47" fill="none" xmlns="http://www.w3.org/2000/svg">
<path fill-rule="evenodd" clip-rule="evenodd" d="M50.625 46.625C52.8958 46.625 54.9896 46.0417 56.9062 44.875C58.8021 43.7083 60.3333 42.1562 61.5 40.2188C62.6458 38.2604 63.2188 36.1146 63.2188 33.7812L63.204 29H64.2344C65.3977 29.4406 66.7086 29.4603 67.9159 29H68.3051L68.2812 45.625C68.2812 45.875 68.3854 46 68.5938 46H74.2188L82.2227 29H85.1791L84.8438 45.5C84.8438 45.8333 85.0417 46 85.4375 46H91.8438C92.1771 46 92.3438 45.8542 92.3438 45.5625L92.3675 29H98.7188V33.7812C98.7188 36.1771 99.2812 38.3438 100.406 40.2812C101.552 42.2188 103.062 43.7604 104.938 44.9062C106.792 46.0521 108.875 46.625 111.188 46.625C113.542 46.625 115.656 46.0521 117.531 44.9062C119.406 43.7604 120.917 42.2188 122.062 40.2812C123.188 38.3438 123.75 36.1771 123.75 33.7812V29H124V28H123.75V23.1562C123.75 22.9479 123.667 22.8438 123.5 22.8438H111.531C111.302 22.8438 111.188 22.9479 111.188 23.1562V28H106.469V13.5C106.469 12.125 106.948 10.9271 107.906 9.90625C108.865 8.88542 109.958 8.375 111.188 8.375C112.562 8.375 113.708 8.90625 114.625 9.96875C115.542 11.0312 116 12.375 116 14V16.4375C116 16.6042 116.083 16.6875 116.25 16.6875H123.438C123.646 16.6875 123.75 16.6042 123.75 16.4375V13.5C123.75 11.1042 123.188 8.94792 122.062 7.03125C120.958 5.11458 119.458 3.58333 117.562 2.4375C115.667 1.3125 113.542 0.75 111.188 0.75C108.938 0.75 106.865 1.33333 104.969 2.5C103.073 3.64583 101.562 5.1875 100.438 7.125C99.2917 9.04167 98.7188 11.1667 98.7188 13.5V28H92.3689L92.4062 1.96875C92.4062 1.63542 92.2396 1.46875 91.9062 1.46875H86.125L75.3125 26.6875L75.625 1.96875C75.625 1.63542 75.4375 1.46875 75.0625 1.46875H68.7188C68.4688 1.46875 68.3438 1.63542 68.3438 1.96875L68.3187 19.4798C66.7778 18.7416 64.9046 18.7799 63.3443 19.7464C63.2872 19.7818 63.2311 19.8181 63.1758 19.8553L63.1562 13.5C63.1562 11.125 62.5833 8.98958 61.4375 7.09375C60.3125 5.17708 58.7917 3.64583 56.875 2.5C54.9583 1.33333 52.875 0.75 50.625 0.75C48.2917 0.75 46.1979 1.32292 44.3438 2.46875C42.4688 3.61458 40.9688 5.15625 39.8438 7.09375C38.6979 9.01042 38.125 11.1458 38.125 13.5L38.0803 28H32.356L32.2812 1.71875C32.2812 1.55208 32.1979 1.46875 32.0312 1.46875H19.7188C15.8021 1.46875 12.7083 2.66667 10.4375 5.0625C8.14583 7.4375 7 10.6771 7 14.7812C7 17.7812 7.59375 20.3958 8.78125 22.625C9.98958 24.8333 11.5521 26.5417 13.4688 27.75C13.6058 27.8364 13.7438 27.9198 13.8826 28H7V29H16.1136C17.2636 29.375 18.4653 29.5625 19.7188 29.5625H20.4213L21.0572 29H25.0873L27.1212 31.2994L24.5938 33.535V42.4362C25.2734 42.6789 25.8785 43.145 26.288 43.8061C26.7103 44.4879 26.8543 45.2634 26.7513 46H29.923L29.915 45.9951L32.3879 41.9771L32.3957 41.9818L32.3588 29H38.0772L38.0625 33.7812C38.0625 36.1146 38.625 38.25 39.75 40.1875C40.8958 42.1458 42.4167 43.7083 44.3125 44.875C46.2083 46.0417 48.3125 46.625 50.625 46.625ZM45.8272 29L45.8125 33.7812C45.8125 35.0938 46.2917 36.2812 47.25 37.3438C48.2083 38.3854 49.3333 38.9062 50.625 38.9062C51.9375 38.9062 53.0625 38.4062 54 37.4062C54.9375 36.3854 55.4062 35.1771 55.4062 33.7812V29H63.204L63.2024 28.4705C63.5272 28.6863 63.8737 28.8634 64.2344 29L67.9159 29C68.047 28.95 68.1769 28.8944 68.3053 28.833L68.3051 29H82.2227L82.6936 28H85.1994L85.1791 29L92.3675 29L92.3689 28L85.1994 28L85.3125 22.4375L82.6936 28H69.5505C71.3765 26.3536 71.8216 23.5876 70.481 21.4235C69.9399 20.5499 69.1814 19.8932 68.3187 19.4798L68.3065 28L63.2009 28L63.1758 19.8553C60.8765 21.4036 60.195 24.5064 61.6673 26.8831C61.9302 27.3076 62.2445 27.6809 62.5972 28H55.4062V13.5C55.4062 12.0417 54.9375 10.8333 54 9.875C53.0625 8.91667 51.9375 8.4375 50.625 8.4375C49.25 8.4375 48.1146 8.92708 47.2188 9.90625C46.3229 10.8854 45.875 12.0833 45.875 13.5L45.8303 28L38.0803 28L38.0772 29L45.8272 29ZM45.8272 29H55.4062V28H45.8303L45.8272 29ZM62.5972 28C62.7883 28.173 62.9908 28.33 63.2024 28.4705L63.2009 28H62.5972ZM68.3065 28L68.3053 28.833C68.4744 28.7521 68.6409 28.6612 68.804 28.5602C69.0737 28.3931 69.3228 28.2052 69.5505 28H68.3065ZM24.2028 28H32.356L32.3588 29H25.0873L24.2028 28ZM24.2028 28H22.1877L23.3182 27L24.2028 28ZM22.1877 28L13.8826 28C14.6033 28.4167 15.3469 28.75 16.1136 29L21.0572 29L22.1877 28ZM106.469 29H98.7188V28H106.469V29ZM106.469 29H111.188V30.3125C111.188 30.5208 111.302 30.625 111.531 30.625H116V33.7812C116 35.2188 115.542 36.4375 114.625 37.4375C113.708 38.4167 112.562 38.9062 111.188 38.9062C109.917 38.9062 108.812 38.4062 107.875 37.4062C106.938 36.3854 106.469 35.1771 106.469 33.7812V29ZM111.188 29L123.75 29V28L111.188 28V29ZM19.7188 9.0625L24.5938 9.125V21.8125H19.7188C18.3646 21.8125 17.1875 21.1667 16.1875 19.875C15.1875 18.5625 14.6875 16.8646 14.6875 14.7812C14.6875 13.1146 15.1354 11.75 16.0312 10.6875C16.9271 9.60417 18.1562 9.0625 19.7188 9.0625Z" fill="black"/>
</svg>
